<svg width="132.96875px" height="216.79999999999998px" xmlns="http://www.w3.org/2000/svg" viewBox="183.515625 -33.39999999999999 132.96875 216.79999999999998" style="background: rgb(46, 191, 145);" preserveAspectRatio="xMidYMid"><defs><filter id="editing-extrude-glow"><feFlood flood-color="#333333" result="flood-1"></feFlood><feMorphology operator="erode" radius="1" in="SourceAlpha" result="erode"></feMorphology><feComposite operator="in" in="flood-1" in2="erode" result="comp1"></feComposite><feConvolveMatrix order="3,3" divisor="1" in="comp1" result="convolve" kernelMatrix="0 0 0 1 1 1 0 0 0"></feConvolveMatrix><feOffset dx="-3" dy="0" in="convolve" result="extrude"></feOffset><feComposite operator="in" in="flood-1" in2="extrude" result="comp-extrude"></feComposite><feFlood flood-color="#000000" result="flood-2"></feFlood><feComposite operator="in" in="flood-2" in2="SourceAlpha" result="comp2"></feComposite><feMorphology operator="dilate" radius="1" in="comp2" result="dilate"></feMorphology><feOffset dx="-4.5" dy="0" in="dilate" result="offset"></feOffset><feGaussianBlur in="offset" stdDeviation="5.8" result="blur"></feGaussianBlur><feComponentTransfer in="blur" result="shadow"><feFuncA type="linear" slope="0.8" intercept="-0.2"></feFuncA></feComponentTransfer><feMerge><feMergeNode in="shadow"></feMergeNode><feMergeNode in="comp-extrude"></feMergeNode><feMergeNode in="SourceGraphic"></feMergeNode></feMerge></filter></defs><g filter="url(#editing-extrude-glow)"><g transform="translate(207.0250039100647, 117.98000192642212)"><path d="M57.77-5.45L60.44-6.96L59.74-29L50.81-31.32L51.39-35.96L66.00-34.80L80.27-35.96L80.85-31.32L71.92-29L71.11-4.87L59.62-0.23L37.58 2.32L15.66-8.12L7.42-23.08L5.10-38.05L5.10-49.88L11.37-65.08L26.33-79.23L42.22-83.64L55.22-83.64L72.96-79.11L70.88-73.20L69.25-59.16L64.84-58.81L62.18-75.05L53.59-77.26L39.67-77.26L22.27-62.41L18.44-43.38L20.07-25.75L26.80-13.34L38.86-3.83L57.77-5.45Z" fill="#271d3b"></path></g></g><style>text {
  font-size: 64px;
  font-family: Arial Black;
  dominant-baseline: central;
  text-anchor: middle;
}</style></svg>