<svg xmlns:mydata="http://www.w3.org/2000/svg" mydata:contrastcolor="271d3b" mydata:template="Contrast" mydata:presentation="2.5" mydata:layouttype="undefined" mydata:specialfontid="undefined" mydata:id1="565" mydata:id2="544" mydata:companyname="Money Split" mydata:companytagline="Clara pacta, good bros" version="1.1" xmlns="http://www.w3.org/2000/svg" xmlns:xlink="http://www.w3.org/1999/xlink" viewBox="0 0 550 470"><defs><linearGradient x1="65" y1="235" x2="485" y2="235" gradientUnits="userSpaceOnUse" id="color-15203"><stop offset="0" stop-color="#8360c3"></stop><stop offset="1" stop-color="#2ebf91"></stop></linearGradient></defs><g fill="url(#color-15203)" fill-rule="none" stroke="none" stroke-width="1" stroke-linecap="butt" stroke-linejoin="miter" stroke-miterlimit="10" stroke-dasharray="" stroke-dashoffset="0" font-family="none" font-weight="none" font-size="none" text-anchor="none" style="mix-blend-mode: normal;"><g data-paper-data="{&quot;isGlobalGroup&quot;:true,&quot;bounds&quot;:{&quot;x&quot;:65,&quot;y&quot;:125.11544293166466,&quot;width&quot;:420,&quot;height&quot;:219.7691141366707}}"><g data-paper-data="{&quot;isSecondaryText&quot;:true}" fill-rule="nonzero"><path d="M100.42612,331.1446c2.95506,0 4.27082,2.04913 4.27082,2.04913l0.17256,-0.02157l-0.36669,-2.54523l-0.17256,0.02157l-0.30198,0.62552c-1.05692,-0.69023 -2.30797,-1.07849 -3.58058,-1.07849c-4.31396,0 -7.01018,2.93349 -7.01018,6.53564c0,3.60215 2.69622,6.53564 7.01018,6.53564c1.53145,0 3.01977,-0.53924 4.20611,-1.53145l-0.60395,-0.7118c-1.01378,0.84122 -2.2864,1.31576 -3.60215,1.31576c-3.08448,0 -5.11204,-2.50209 -5.11204,-5.58657c0,-3.08448 2.02756,-5.58657 5.11204,-5.58657z" data-paper-data="{&quot;glyphName&quot;:&quot;C&quot;,&quot;glyphIndex&quot;:0,&quot;firstGlyphOfWord&quot;:true,&quot;word&quot;:1}"></path><path d="M121.75079,340.72159l-1.01378,1.1432c-0.25884,0.30198 -0.64709,0.47454 -1.03535,0.47454h-4.83163v-10.54762c0,-0.58238 0.34512,-1.10006 0.88436,-1.31576l0.34512,-0.12942v-0.17256h-4.3571v0.17256l0.34512,0.12942c0.53924,0.2157 0.88436,0.73337 0.88436,1.31576v9.90053c0,0.58238 -0.34512,1.10006 -0.88436,1.31576l-0.34512,0.12942v0.17256h9.81425l0.36669,-2.54523z" data-paper-data="{&quot;glyphName&quot;:&quot;L&quot;,&quot;glyphIndex&quot;:1,&quot;word&quot;:1}"></path><path d="M141.64386,342.94328c-0.64709,-0.25884 -1.16477,-0.77651 -1.42361,-1.42361l-4.3571,-11.30257h-1.01378l-4.40024,11.41042c-0.25884,0.64709 -0.77651,1.16477 -1.42361,1.42361l-0.17256,0.06471v0.17256h3.55901v-0.17256l-0.66866,-0.25884c-0.36669,-0.12942 -0.53924,-0.53924 -0.40983,-0.90593l1.40204,-3.64529h4.37867l1.38047,3.60215c0.12942,0.36669 -0.04314,0.77651 -0.40983,0.90593l-0.77651,0.30198v0.17256h4.83163v-0.17256zM133.10223,337.37827l1.83343,-4.72378l1.83343,4.72378z" data-paper-data="{&quot;glyphName&quot;:&quot;A&quot;,&quot;glyphIndex&quot;:2,&quot;word&quot;:1}"></path><path d="M159.46578,343.00799c-0.60395,-0.23727 -1.10006,-0.7118 -1.38047,-1.31576c-0.23727,-0.53924 -0.53924,-1.20791 -0.88436,-1.96285c-0.45297,-1.01378 -0.94907,-2.09227 -1.6393,-2.89035c1.87657,-0.51767 2.37268,-1.76872 2.37268,-3.2139c0,-1.89814 -0.84122,-3.4296 -4.52965,-3.4296h-4.89634v0.17256l0.34512,0.12942c0.53924,0.2157 0.88436,0.73337 0.88436,1.31576v9.90053c0,0.58238 -0.34512,1.10006 -0.88436,1.31576l-0.34512,0.12942v0.17256h4.3571v-0.17256l-0.34512,-0.12942c-0.53924,-0.2157 -0.88436,-0.73337 -0.88436,-1.31576v-4.59436h1.55302c0.88436,0 1.46675,1.6393 2.26483,3.40803c0.94907,2.11384 1.25105,2.7825 1.25105,2.7825h3.04134v-0.17256zM154.50473,336.01938c-0.36669,0.10785 -0.75494,0.15099 -1.12163,0.15099h-1.76872v-4.98262h1.76872c1.1432,0 2.63151,0.32355 2.63151,2.50209c0,1.48832 -0.69023,2.11384 -1.48832,2.35111z" data-paper-data="{&quot;glyphName&quot;:&quot;R&quot;,&quot;glyphIndex&quot;:3,&quot;word&quot;:1}"></path><path d="M178.4024,342.94328c-0.64709,-0.25884 -1.16477,-0.77651 -1.42361,-1.42361l-4.3571,-11.30257h-1.01378l-4.40024,11.41042c-0.25884,0.64709 -0.77651,1.16477 -1.42361,1.42361l-0.17256,0.06471v0.17256h3.55901v-0.17256l-0.66866,-0.25884c-0.36669,-0.12942 -0.53924,-0.53924 -0.40983,-0.90593l1.40204,-3.64529h4.37867l1.38047,3.60215c0.12942,0.36669 -0.04314,0.77651 -0.40983,0.90593l-0.77651,0.30198v0.17256h4.83163v-0.17256zM169.86076,337.37827l1.83343,-4.72378l1.83343,4.72378z" data-paper-data="{&quot;glyphName&quot;:&quot;A&quot;,&quot;glyphIndex&quot;:4,&quot;lastGlyphOfWord&quot;:true,&quot;word&quot;:1}"></path><path d="M201.04979,330.2171h-4.89634v0.17256l0.34512,0.12942c0.53924,0.2157 0.88436,0.73337 0.88436,1.31576v9.90053c0,0.58238 -0.34512,1.10006 -0.88436,1.31576l-0.34512,0.12942v0.17256h4.3571v-0.17256l-0.34512,-0.12942c-0.53924,-0.2157 -0.88436,-0.73337 -0.88436,-1.31576v-4.59436h1.76872c3.68843,0 4.52965,-1.55302 4.52965,-3.4296c0,-1.89814 -0.84122,-3.4296 -4.52965,-3.4296zM201.04979,336.2135h-1.76872v-4.98262h1.76872c1.1432,0 2.63151,0.32355 2.63151,2.50209c0,2.17855 -1.48832,2.50209 -2.63151,2.50209z" data-paper-data="{&quot;glyphName&quot;:&quot;P&quot;,&quot;glyphIndex&quot;:5,&quot;firstGlyphOfWord&quot;:true,&quot;word&quot;:2}"></path><path d="M223.10754,342.94328c-0.64709,-0.25884 -1.16477,-0.77651 -1.42361,-1.42361l-4.3571,-11.30257h-1.01378l-4.40024,11.41042c-0.25884,0.64709 -0.77651,1.16477 -1.42361,1.42361l-0.17256,0.06471v0.17256h3.55901v-0.17256l-0.66866,-0.25884c-0.36669,-0.12942 -0.53924,-0.53924 -0.40983,-0.90593l1.40204,-3.64529h4.37867l1.38047,3.60215c0.12942,0.36669 -0.04314,0.77651 -0.40983,0.90593l-0.77651,0.30198v0.17256h4.83163v-0.17256zM214.5659,337.37827l1.83343,-4.72378l1.83343,4.72378z" data-paper-data="{&quot;glyphName&quot;:&quot;A&quot;,&quot;glyphIndex&quot;:6,&quot;word&quot;:2}"></path><path d="M235.89027,331.1446c2.95506,0 4.27082,2.04913 4.27082,2.04913l0.17256,-0.02157l-0.36669,-2.54523l-0.17256,0.02157l-0.30198,0.62552c-1.05692,-0.69023 -2.30797,-1.07849 -3.58058,-1.07849c-4.31396,0 -7.01018,2.93349 -7.01018,6.53564c0,3.60215 2.69622,6.53564 7.01018,6.53564c1.53145,0 3.01977,-0.53924 4.20611,-1.53145l-0.60395,-0.7118c-1.01378,0.84122 -2.2864,1.31576 -3.60215,1.31576c-3.08448,0 -5.11204,-2.50209 -5.11204,-5.58657c0,-3.08448 2.02756,-5.58657 5.11204,-5.58657z" data-paper-data="{&quot;glyphName&quot;:&quot;C&quot;,&quot;glyphIndex&quot;:7,&quot;word&quot;:2}"></path><path d="M258.97567,330.2171h-11.38885l-0.36669,2.54523l0.17256,0.02157l1.01378,-1.1432c0.25884,-0.30198 0.64709,-0.47454 1.03535,-0.47454h2.89035v10.54762c0,0.58238 -0.34512,1.10006 -0.88436,1.31576l-0.34512,0.12942v0.17256h4.3571v-0.17256l-0.34512,-0.12942c-0.53924,-0.2157 -0.88436,-0.73337 -0.88436,-1.31576v-10.54762h2.89035c0.38826,0 0.77651,0.17256 1.03535,0.47454l1.01378,1.1432l0.17256,-0.02157z" data-paper-data="{&quot;glyphName&quot;:&quot;T&quot;,&quot;glyphIndex&quot;:8,&quot;word&quot;:2}"></path><path d="M276.34252,342.94328c-0.64709,-0.25884 -1.16477,-0.77651 -1.42361,-1.42361l-4.3571,-11.30257h-1.01378l-4.40024,11.41042c-0.25884,0.64709 -0.77651,1.16477 -1.42361,1.42361l-0.17256,0.06471v0.17256h3.55901v-0.17256l-0.66866,-0.25884c-0.36669,-0.12942 -0.53924,-0.53924 -0.40983,-0.90593l1.40204,-3.64529h4.37867l1.38047,3.60215c0.12942,0.36669 -0.04314,0.77651 -0.40983,0.90593l-0.77651,0.30198v0.17256h4.83163v-0.17256zM267.80089,337.37827l1.83343,-4.72378l1.83343,4.72378z" data-paper-data="{&quot;glyphName&quot;:&quot;A&quot;,&quot;glyphIndex&quot;:9,&quot;word&quot;:2}"></path><path d="M284.85732,340.98043c-0.64709,0 -1.16477,0.51767 -1.16477,1.16477c0,0.64709 0.51767,1.16477 1.16477,1.16477c0.15099,0 0.23727,0 0.36669,-0.06471c0.08628,0.19413 0.12942,0.84122 -0.2157,1.46675l0.23727,0.17256c0,0 0.9275,-0.73337 0.9275,-2.39425c0,-1.01378 -0.53924,-1.48832 -1.31576,-1.48832z" data-paper-data="{&quot;glyphName&quot;:&quot;,&quot;,&quot;glyphIndex&quot;:10,&quot;lastGlyphOfWord&quot;:true,&quot;word&quot;:2}"></path><path d="M311.39814,338.95287v0.17256c0.73337,0 1.31576,0.58238 1.31576,1.31576v1.40204c-0.73337,0.32355 -1.53145,0.49611 -2.32954,0.49611c-3.08448,0 -5.11204,-2.50209 -5.11204,-5.58657c0,-3.08448 2.02756,-5.58657 5.11204,-5.58657c2.95506,0 4.24925,2.04913 4.24925,2.04913l0.17256,-0.02157l-0.2157,-1.42361v0v0l-0.15099,-1.12163l-0.17256,0.02157l-0.30198,0.62552c-1.05692,-0.69023 -2.30797,-1.07849 -3.58058,-1.07849c-4.31396,0 -7.01018,2.93349 -7.01018,6.53564c0,3.60215 2.69622,6.53564 7.01018,6.53564c1.53145,0 3.01977,-0.53924 4.20611,-1.53145v-1.29419c0,-0.73337 0.58238,-1.31576 1.31576,-1.31576v-0.17256z" data-paper-data="{&quot;glyphName&quot;:&quot;G&quot;,&quot;glyphIndex&quot;:11,&quot;firstGlyphOfWord&quot;:true,&quot;word&quot;:3}"></path><path d="M329.64873,330.2171c-3.4943,0 -6.81605,2.2864 -6.81605,6.55721c0,4.24925 3.32175,6.53564 6.81605,6.53564c3.4943,0 6.79448,-2.2864 6.79448,-6.53564c0,-4.27082 -3.30018,-6.55721 -6.79448,-6.55721zM329.64873,342.36089c-2.9982,0 -4.98262,-2.50209 -4.98262,-5.58657c0,-3.08448 1.98442,-5.58657 4.98262,-5.58657c2.9982,0 4.96105,2.50209 4.96105,5.58657c0,3.08448 -1.96285,5.58657 -4.96105,5.58657z" data-paper-data="{&quot;glyphName&quot;:&quot;O&quot;,&quot;glyphIndex&quot;:12,&quot;word&quot;:3}"></path><path d="M350.19327,330.2171c-3.4943,0 -6.81605,2.2864 -6.81605,6.55721c0,4.24925 3.32175,6.53564 6.81605,6.53564c3.4943,0 6.79448,-2.2864 6.79448,-6.53564c0,-4.27082 -3.30018,-6.55721 -6.79448,-6.55721zM350.19327,342.36089c-2.9982,0 -4.98262,-2.50209 -4.98262,-5.58657c0,-3.08448 1.98442,-5.58657 4.98262,-5.58657c2.9982,0 4.96105,2.50209 4.96105,5.58657c0,3.08448 -1.96285,5.58657 -4.96105,5.58657z" data-paper-data="{&quot;glyphName&quot;:&quot;O&quot;,&quot;glyphIndex&quot;:13,&quot;word&quot;:3}"></path><path d="M369.21088,330.2171h-5.84541v0.17256l0.34512,0.12942c0.53924,0.2157 0.88436,0.73337 0.88436,1.31576v9.90053c0,0.58238 -0.34512,1.10006 -0.88436,1.31576l-0.34512,0.12942v0.17256h5.84541c4.50808,0 6.40623,-2.86878 6.40623,-6.53564c0,-3.64529 -1.89814,-6.53564 -6.40623,-6.53564zM369.21088,342.4256h-2.71779v-11.19472h2.71779c2.9982,0 4.50808,2.04913 4.50808,5.60814c0,3.55901 -1.50988,5.60814 -4.50808,5.60814z" data-paper-data="{&quot;glyphName&quot;:&quot;D&quot;,&quot;glyphIndex&quot;:14,&quot;lastGlyphOfWord&quot;:true,&quot;word&quot;:3}"></path><path d="M400.59448,336.17036c1.03535,-0.56081 1.68244,-1.46675 1.68244,-2.65308c0,-2.82564 -2.00599,-3.30018 -4.50808,-3.30018h-4.89634v0.17256l0.34512,0.12942c0.53924,0.2157 0.88436,0.73337 0.88436,1.31576v9.90053c0,0.58238 -0.34512,1.10006 -0.88436,1.31576l-0.34512,0.12942v0.17256h5.41402c3.19233,0 5.11204,-1.38047 5.11204,-3.71c0,-1.68244 -1.03535,-2.86878 -2.82564,-3.38646zM397.74727,331.23088c1.1432,0 2.60994,0.30198 2.60994,2.35111c0,2.04913 -1.46675,2.35111 -2.60994,2.35111h-1.76872v-4.72378zM398.26494,342.40403h-2.2864v-5.52186h2.2864c2.32954,0 3.2139,0.77651 3.2139,2.76093c0,2.30797 -1.72558,2.76093 -3.23547,2.76093z" data-paper-data="{&quot;glyphName&quot;:&quot;B&quot;,&quot;glyphIndex&quot;:15,&quot;firstGlyphOfWord&quot;:true,&quot;word&quot;:4}"></path><path d="M420.70506,343.00799c-0.60395,-0.23727 -1.10006,-0.7118 -1.38047,-1.31576c-0.23727,-0.53924 -0.53924,-1.20791 -0.88436,-1.96285c-0.45297,-1.01378 -0.94907,-2.09227 -1.6393,-2.89035c1.87657,-0.51767 2.37268,-1.76872 2.37268,-3.2139c0,-1.89814 -0.84122,-3.4296 -4.52965,-3.4296h-4.89634v0.17256l0.34512,0.12942c0.53924,0.2157 0.88436,0.73337 0.88436,1.31576v9.90053c0,0.58238 -0.34512,1.10006 -0.88436,1.31576l-0.34512,0.12942v0.17256h4.3571v-0.17256l-0.34512,-0.12942c-0.53924,-0.2157 -0.88436,-0.73337 -0.88436,-1.31576v-4.59436h1.55302c0.88436,0 1.46675,1.6393 2.26483,3.40803c0.94907,2.11384 1.25105,2.7825 1.25105,2.7825h3.04134v-0.17256zM415.74401,336.01938c-0.36669,0.10785 -0.75494,0.15099 -1.12163,0.15099h-1.76872v-4.98262h1.76872c1.1432,0 2.63151,0.32355 2.63151,2.50209c0,1.48832 -0.69023,2.11384 -1.48832,2.35111z" data-paper-data="{&quot;glyphName&quot;:&quot;R&quot;,&quot;glyphIndex&quot;:16,&quot;word&quot;:4}"></path><path d="M434.74081,330.2171c-3.4943,0 -6.81605,2.2864 -6.81605,6.55721c0,4.24925 3.32175,6.53564 6.81605,6.53564c3.4943,0 6.79448,-2.2864 6.79448,-6.53564c0,-4.27082 -3.30018,-6.55721 -6.79448,-6.55721zM434.74081,342.36089c-2.9982,0 -4.98262,-2.50209 -4.98262,-5.58657c0,-3.08448 1.98442,-5.58657 4.98262,-5.58657c2.9982,0 4.96105,2.50209 4.96105,5.58657c0,3.08448 -1.96285,5.58657 -4.96105,5.58657z" data-paper-data="{&quot;glyphName&quot;:&quot;O&quot;,&quot;glyphIndex&quot;:17,&quot;word&quot;:4}"></path><path d="M453.24074,335.56641c-1.42361,-0.81965 -2.86878,-1.38047 -2.86878,-2.71779c0,-1.25105 1.50988,-1.72558 2.52366,-1.72558c2.39425,0 3.23547,1.79029 3.23547,1.79029l0.17256,-0.02157l-0.36669,-2.54523l-0.17256,0.02157l-0.25884,0.53924c-0.79808,-0.45297 -1.76872,-0.7118 -2.63151,-0.7118c-2.32954,0 -3.99041,1.29419 -3.99041,3.30018c0,2.11384 1.74715,2.76093 3.34332,3.66686c1.44518,0.81965 2.43739,1.68244 2.43739,2.67465c0,1.70401 -1.03535,2.45896 -2.52366,2.45896c-2.54523,0 -3.58058,-2.39425 -3.58058,-2.39425h-0.17256v2.5668h0.17256l0.32355,-0.47454c1.16477,1.10006 2.35111,1.25105 3.27861,1.25105c2.30797,0 4.40024,-1.40204 4.40024,-3.40803c0,-2.69622 -1.72558,-3.38646 -3.34332,-4.31396z" data-paper-data="{&quot;glyphName&quot;:&quot;S&quot;,&quot;glyphIndex&quot;:18,&quot;lastGlyphOfWord&quot;:true,&quot;word&quot;:4}"></path></g><g data-paper-data="{&quot;isPrimaryText&quot;:true}" fill-rule="nonzero"><path d="M65.9659,266.96599c-0.20693,0.06898 -1.93135,46.35241 -0.20693,48.83558c0.34488,0.41386 3.37986,0.68977 7.65643,0.8967c1.86237,-2.13828 6.89768,-9.31187 4.48349,-19.72737c-0.75874,-2.89703 3.72475,-4.00065 4.48349,-1.03465c2.20726,9.5188 -0.75874,16.76136 -3.37986,20.89997c6.41484,0.13795 14.07127,0.06898 20.41713,-0.13795c-2.62112,-4.06963 -5.58712,-11.38117 -3.24191,-20.76202c0.62079,-2.966 5.10428,-1.86237 4.48349,1.03465c-2.48317,10.13959 2.27623,17.2442 4.20759,19.58941c3.65577,-0.20693 6.20791,-0.48284 6.62177,-0.75874c1.86237,-1.31056 2.55214,-47.24911 -0.20693,-49.24944c-0.13795,-0.06898 -9.93266,0 -20.34816,0.13795c-0.82772,9.10494 1.93135,12.69173 -1.51749,13.31252c-1.24158,0.20693 -2.48317,-0.62079 -2.75907,-1.86237c0,0 -0.82772,-4.89735 -0.34488,-11.45015c-10.48447,0.06898 -20.27918,0.20693 -20.34816,0.27591z" data-paper-data="{&quot;glyphName&quot;:&quot;M&quot;,&quot;glyphIndex&quot;:0,&quot;firstGlyphOfWord&quot;:true,&quot;word&quot;:1}"></path><path d="M118.45725,266.96599c-0.27591,0.06898 -1.58647,46.35241 -0.20693,48.90456c0.8967,1.58647 34.41943,1.24158 35.79896,0c1.51749,-1.37954 2.0693,-47.31809 -0.13795,-49.31842c-0.13795,-0.13795 -35.45408,0.34488 -35.45408,0.41386zM134.39089,276.82968c0,-1.31056 1.10363,-2.34521 2.34521,-2.27623c1.31056,0 2.34521,1.10363 2.27623,2.34521l-0.48284,20.07225l-0.20693,9.03596c0,1.24158 -1.03465,2.27623 -2.34521,2.20726c-1.24158,0 -2.27623,-1.03465 -2.20726,-2.34521l0.13795,-9.03596z" data-paper-data="{&quot;glyphName&quot;:&quot;O&quot;,&quot;glyphIndex&quot;:1,&quot;word&quot;:1}"></path><path d="M160.67105,266.96599c-0.20693,0.06898 -1.51749,46.35241 -0.13795,48.90456c0.62079,1.10363 16.69239,1.24158 27.10789,0.82772c-6.96666,-8.07029 -11.38117,-17.58909 -11.38117,-17.65806c-0.55181,-1.17261 0,-2.55214 1.10363,-3.03498c1.17261,-0.55181 2.55214,-0.06898 3.10396,1.10363c1.65544,3.44884 11.65708,22.41746 15.93364,18.76169c1.37954,-1.31056 1.93135,-47.31809 -0.20693,-49.31842c-0.06898,-0.06898 -15.58876,0.06898 -26.00426,0.20693c6.89768,8.07029 11.3122,17.58909 11.3122,17.65806c0.55181,1.17261 0,2.55214 -1.17261,3.03498c-1.10363,0.55181 -2.48317,0.06898 -3.03498,-1.03465c-1.7934,-3.93168 -11.93299,-22.27951 -16.62341,-19.45146z" data-paper-data="{&quot;glyphName&quot;:&quot;N&quot;,&quot;glyphIndex&quot;:2,&quot;word&quot;:1}"></path><path d="M218.74952,275.864c0.13795,-3.03498 4.7594,-2.75907 4.55247,0.27591l-0.48284,7.4495c-0.13795,2.966 -4.7594,2.6901 -4.55247,-0.34488zM243.5122,266.48316c-0.06898,0.06898 -0.34488,12.55378 -0.55181,24.55574c0,-0.06898 0.06898,-0.06898 0.13795,-0.06898c19.52044,0 24.21086,7.10461 21.86565,12.76071c-1.37954,3.17293 -5.10428,5.79405 -9.79471,5.79405c-3.03498,0 -3.03498,-4.69042 0,-4.69042c2.966,0 5.31121,-2.6901 5.24224,-4.55247c-0.13795,-4.62145 -20.41713,-6.89768 -38.28213,-4.00065c-0.41386,9.10494 8.07029,18.20988 8.89801,19.79634c0.8967,1.65544 46.6973,0.55181 48.21479,-0.68977c1.37954,-1.31056 1.93135,-47.24911 -0.20693,-49.31842c-0.06898,0 -7.31154,0 -15.24387,0.13795c-2.20726,14.89899 1.7934,20.55509 -2.34521,21.03793c-1.24158,0.13795 -2.41419,-0.75874 -2.55214,-2.0693c0,0 -1.03465,-9.17392 0.27591,-18.89965c-8.07029,0.06898 -15.58876,0.13795 -15.65774,0.20693zM202.95383,266.48316c-0.20693,0.13795 -1.51749,46.35241 -0.13795,48.90456c0.55181,0.96568 13.72638,1.24158 23.93495,0.96568c-5.93201,-5.51814 -8.96698,-13.03662 -8.69108,-21.79667c0,-0.34488 0.06898,-0.82772 0.34488,-1.10363c2.00033,-2.20726 14.69206,-2.55214 21.45179,-2.34521c0,-11.51913 -0.34488,-24.00393 -1.37954,-25.03858c-0.13795,-0.06898 -35.3851,0.34488 -35.52306,0.41386z" data-paper-data="{&quot;glyphName&quot;:&quot;special;P_Y&quot;,&quot;glyphIndex&quot;:3,&quot;lastGlyphOfWord&quot;:true,&quot;word&quot;:1}"></path><path d="M306.62598,266.96599c-0.13795,0.06898 -0.41386,9.03596 -0.62079,19.31351c8.00131,0.62079 21.86565,3.51782 24.41779,14.96797c0.27591,1.31056 -0.48284,2.48317 -1.7934,2.82805c-1.24158,0.27591 -2.41419,-0.55181 -2.75907,-1.7934c-1.93135,-8.55312 -13.03662,-10.82936 -20.00327,-11.38117c-0.13795,11.72606 -0.13795,23.65904 0.55181,24.9696c0.8967,1.58647 34.41943,1.24158 35.86794,0c0.68977,-0.68977 1.24158,-12.89866 1.24158,-24.9696c-2.13828,-2.75907 -7.65643,-8.27722 -17.2442,-8.48415c-1.31056,-0.06898 -2.27623,-1.10363 -2.27623,-2.41419c0.06898,-1.31056 1.10363,-2.27623 2.41419,-2.27623c7.79438,0.20693 13.45048,3.44884 17.10625,6.5528c-0.13795,-9.17392 -0.55181,-16.89932 -1.44851,-17.72704c-0.20693,-0.13795 -35.45408,0.34488 -35.45408,0.41386z" data-paper-data="{&quot;glyphName&quot;:&quot;S&quot;,&quot;glyphIndex&quot;:4,&quot;firstGlyphOfWord&quot;:true,&quot;word&quot;:2}"></path><path d="M364.49752,276.55377c0.27591,-2.966 4.82838,-2.6901 4.62145,0.34488l-0.41386,7.10461c-0.20693,3.03498 -4.82838,2.75907 -4.62145,-0.34488zM348.83978,266.96599c-0.27591,0.06898 -1.58647,46.35241 -0.20693,48.83558c0.55181,1.03465 13.72638,1.31056 23.93495,1.03465c-5.93201,-5.58712 -9.03596,-13.03662 -8.6221,-21.79667c0.06898,-3.58679 5.79405,-1.7934 7.65643,-1.65544c4.48349,0.20693 10.82936,0 14.14025,-2.89703c0,-11.5881 -0.34488,-22.96928 -1.44851,-23.93495c-0.13795,-0.13795 -35.45408,0.34488 -35.45408,0.41386z" data-paper-data="{&quot;glyphName&quot;:&quot;P&quot;,&quot;glyphIndex&quot;:5,&quot;word&quot;:2}"></path><path d="M391.05359,266.96599c-0.27591,0.06898 -1.58647,46.35241 -0.20693,48.90456c0.8967,1.58647 34.41943,1.24158 35.79896,0c0.55181,-0.55181 0.96568,-6.62177 1.17261,-14.34718c-11.3122,1.24158 -16.27853,9.86368 -16.3475,9.93266c-0.55181,1.10363 -2.00033,1.44851 -3.10396,0.82772c-0.8967,-0.48284 -1.24158,-1.44851 -1.10363,-2.34521v0c0,-0.06898 3.8627,-24.83165 1.37954,-43.24846c-8.82903,0.06898 -17.58909,0.20693 -17.58909,0.27591z" data-paper-data="{&quot;glyphName&quot;:&quot;L&quot;,&quot;glyphIndex&quot;:6,&quot;word&quot;:2}"></path><path d="M432.71558,266.89702c-0.13795,0.06898 0.13795,10.20857 -0.06898,17.79602c9.10494,-4.27656 19.58941,-7.10461 25.8663,-6.75973c1.86237,-0.13795 2.966,1.65544 2.34521,3.24191c0,0 -9.03596,20.62407 -4.13861,35.59203c6.06996,0.20693 14.20922,0.13795 19.9343,-0.13795c-8.69108,-14.55411 -6.20791,-36.55771 -6.20791,-36.62668c0.48284,-4.69042 11.93299,-0.34488 14.55411,1.10363c-0.20693,-7.7254 -0.55181,-13.79536 -1.31056,-14.55411c-0.20693,-0.13795 -50.97386,0.34488 -50.97386,0.34488zM432.3707,290.00425c-0.13795,12.07094 -0.13795,24.55574 0.20693,25.79733c0.41386,1.65544 17.17523,1.31056 17.93397,0c0.48284,-0.75874 0.75874,-19.45146 0.62079,-33.59171c-6.48382,1.51749 -14.69206,5.58712 -18.76169,7.79438z" data-paper-data="{&quot;glyphName&quot;:&quot;special;I_T&quot;,&quot;glyphIndex&quot;:7,&quot;lastGlyphOfWord&quot;:true,&quot;word&quot;:2}"></path></g><g data-paper-data="{&quot;initialText&quot;:&quot;M&quot;,&quot;fillRule&quot;:&quot;nonzero&quot;,&quot;selectedEffects&quot;:{&quot;container&quot;:&quot;&quot;,&quot;transformation&quot;:&quot;&quot;,&quot;pattern&quot;:&quot;&quot;},&quot;bounds&quot;:{&quot;x&quot;:163.30727535556235,&quot;y&quot;:125.11544293166466,&quot;width&quot;:223.38544928887535,&quot;height&quot;:115.92571420886784},&quot;isIcon&quot;:&quot;true&quot;,&quot;iconType&quot;:&quot;initial&quot;,&quot;iconStyle&quot;:&quot;standalone&quot;,&quot;rawInitialId&quot;:967,&quot;suitableAsStandaloneIcon&quot;:true}" fill-rule="evenodd"><g data-paper-data="{&quot;isPathIcon&quot;:true}"><path d="M192.6142,125.11544l82.2768,28.87293l82.4948,-28.87293h28.65493v32.99792h-23.01094l-88.13878,30.82692l-87.92078,-30.82692h-23.44594v-32.99792z"></path><path d="M196.30519,205.87324l78.58581,26.70193l78.80381,-26.70193v35.16791h32.99792v-71.42182h-29.30693l-82.4948,28.00393l-82.2768,-28.00393h-29.30693v71.42182h32.99792z"></path></g></g></g></g></svg>